<svg width="721" height="263" viewBox="0 0 721 263" fill="none" xmlns="http://www.w3.org/2000/svg">
<path d="M186.5 180.264C162.868 224.506 141.65 241.422 94 261.764C39.597 240.451 18.8823 221.921 0.5 176.264V72.7637C15.1846 68.262 24.7602 66.6154 43.5 64.7637V71.2637C81.6563 66.4026 103.698 66.101 144 71.2637V64.7637C160.517 66.6823 169.865 68.5059 186.5 74.2637V180.264Z" fill="#C39B54" stroke="#C39B54"/>
<path d="M175.5 174.264C157.277 214.986 138.252 230.258 94 248.764C46.2826 231.313 27.5135 215.54 11.5 174.264V78.7637C19.06 76.0968 23.4003 75.5343 31.5 76.7637L34.5 84.2637C79.3737 75.6517 104.987 75.8255 152 84.2637L153.5 75.2637C161.205 75.9701 166.128 77.2488 175.5 80.7637V174.264Z" fill="#16181D" stroke="#C39B54"/>
<path d="M91.5061 184.764C87.8207 202.201 79.1628 207.339 60.5061 214.264C70.2799 214.83 75.8564 214.609 86.5061 209.764C106.125 195.824 111.11 185.476 103.506 159.764L93 148.764L80.5061 141.264L67 133.264C61.3125 129.834 59.2585 127.417 57.5061 122.264C57.5779 108.519 59.1438 101.804 77.5061 99.7642C91.4234 99.8622 98.2341 102.447 107.506 114.764V97.2642L90.0061 93.7642C76.3838 91.5042 69.4471 93.608 57.5061 99.7642C46.4103 107.736 43.2326 113.651 44.5061 126.764C48.3034 142.413 54.2105 148.305 70.0061 154.764C85.3725 161.075 91.6731 166.404 91.5061 184.764Z" fill="#C39B54" stroke="#C39B54"/>
<path d="M137 61.263C102.336 59.0846 83.0921 59.3944 49.5 62.263L41.5 29.263L58.5 37.263C56.3903 44.6468 57.4922 47.4518 67.5 47.763C77.9844 46.3535 80.3708 44.2667 73.5 36.263L91 14.263V10.263C77.9367 -0.878519 105.808 -4.88154 94.5 11.263V14.263L111.5 35.263C103.895 42.8266 104.786 45.7763 119 47.763C129.245 47.1149 130.766 44.3771 127.5 36.263L146 29.263L137 61.263Z" fill="#C39B54" stroke="#C39B54"/>
<path d="M93 213.764L107 197.764C110.313 208.395 115.331 211.796 129.5 213.764C117.28 217.346 109.646 218.049 93 213.764Z" fill="#C39B54"/>
<path d="M39.5 193.264V165.264C46.5362 186.315 55.1217 192.496 81 191.764C65.7319 196.762 57.276 200.147 39.5 193.264Z" fill="#C39B54"/>
<path d="M93 213.764L107 197.764C110.313 208.395 115.331 211.796 129.5 213.764C117.28 217.346 109.646 218.049 93 213.764Z" stroke="#C39B54"/>
<path d="M39.5 193.264V165.264C46.5362 186.315 55.1217 192.496 81 191.764C65.7319 196.762 57.276 200.147 39.5 193.264Z" stroke="#C39B54"/>
<path d="M106.004 148.764C103.642 138.463 103.786 132.555 106.004 122.264L90.5035 115.264C88.9881 123.433 88.7132 128.378 90.5035 138.764L106.004 148.764Z" fill="#C39B54" stroke="#C39B54"/>
<path d="M117 159.264C140.735 139.859 141.412 127.621 117 105.264C138.08 104.675 146.05 109.713 152 130.264C149.295 146.888 144.916 151.538 135.5 157.264L160.5 194.764C155.341 199.441 150.628 199.591 141 198.264L117 159.264Z" fill="#C39B54" stroke="#C39B54"/>
<path d="M239.956 193.01C236.216 193.01 232.34 192.5 228.328 191.48C224.384 190.46 220.61 189.066 217.006 187.298C213.47 185.462 210.478 183.388 208.03 181.076C209.594 178.832 211.328 176.588 213.232 174.344C215.136 172.032 217.244 169.754 219.556 167.51C222.208 170.366 225.132 173.018 228.328 175.466C231.524 177.846 234.72 179.784 237.916 181.28C241.18 182.776 244.172 183.524 246.892 183.524C249.34 183.524 251.516 182.878 253.42 181.586C255.392 180.226 256.378 178.288 256.378 175.772C256.378 173.392 255.46 171.284 253.624 169.448C251.788 167.544 249.374 165.81 246.382 164.246C243.458 162.614 240.33 161.016 236.998 159.452C234.074 158.092 231.184 156.664 228.328 155.168C225.472 153.672 222.854 152.04 220.474 150.272C218.162 148.504 216.292 146.532 214.864 144.356C213.504 142.112 212.824 139.596 212.824 136.808C212.824 134.02 213.538 131.3 214.966 128.648C216.462 125.996 218.536 123.616 221.188 121.508C223.84 119.332 226.968 117.632 230.572 116.408C234.244 115.116 238.256 114.47 242.608 114.47C247.572 114.47 252.57 115.32 257.602 117.02C262.702 118.72 267.122 121.168 270.862 124.364C269.638 126.676 267.972 128.954 265.864 131.198C263.824 133.442 261.818 135.346 259.846 136.91C255.698 132.966 251.584 129.668 247.504 127.016C243.424 124.296 239.582 122.936 235.978 122.936C233.326 122.936 231.32 123.616 229.96 124.976C228.668 126.268 228.022 127.662 228.022 129.158C228.022 130.79 228.77 132.286 230.266 133.646C231.762 135.006 233.734 136.332 236.182 137.624C238.63 138.916 241.316 140.242 244.24 141.602C247.3 143.03 250.394 144.56 253.522 146.192C256.718 147.824 259.642 149.694 262.294 151.802C265.014 153.842 267.19 156.188 268.822 158.84C270.454 161.492 271.27 164.518 271.27 167.918C271.27 171.318 270.42 174.548 268.72 177.608C267.088 180.6 264.81 183.252 261.886 185.564C259.03 187.876 255.698 189.712 251.89 191.072C248.15 192.364 244.172 193.01 239.956 193.01ZM283.954 192.704C283.886 191.276 283.818 188.998 283.75 185.87C283.75 182.674 283.716 178.866 283.648 174.446C283.648 170.026 283.614 165.232 283.546 160.064C283.546 154.896 283.546 149.592 283.546 144.152H272.428L271.816 134.768H283.444C283.444 127.9 283.444 121.406 283.444 115.286C285.96 115.286 288.884 115.32 292.216 115.388C295.616 115.456 298.54 115.558 300.988 115.694C300.988 121.542 300.988 127.9 300.988 134.768H312.616L312.004 144.152H300.886C300.886 149.456 300.852 154.692 300.784 159.86C300.784 164.96 300.75 169.686 300.682 174.038C300.682 178.39 300.648 182.164 300.58 185.36C300.58 188.556 300.546 190.868 300.478 192.296C298.166 192.432 295.616 192.534 292.828 192.602C290.04 192.67 287.082 192.704 283.954 192.704ZM342.722 193.01C337.214 193.01 332.25 191.752 327.83 189.236C323.478 186.652 320.01 183.184 317.426 178.832C314.91 174.412 313.652 169.414 313.652 163.838C313.652 158.262 314.876 153.298 317.324 148.946C319.84 144.594 323.24 141.16 327.524 138.644C331.876 136.128 336.806 134.87 342.314 134.87C347.482 134.87 352.106 136.026 356.186 138.338C360.334 140.582 363.666 143.744 366.182 147.824C368.766 151.904 370.296 156.698 370.772 162.206L330.278 169.754C331.57 174.174 333.61 177.778 336.398 180.566C339.186 183.286 342.314 184.646 345.782 184.646C348.978 184.646 352.14 183.558 355.268 181.382C358.396 179.138 360.81 176.282 362.51 172.814L369.752 178.934C366.42 183.422 362.408 186.89 357.716 189.338C353.024 191.786 348.026 193.01 342.722 193.01ZM328.952 159.758C328.952 160.166 328.952 160.506 328.952 160.778L352.718 157.514C352.242 153.162 350.848 149.66 348.536 147.008C346.224 144.356 343.402 143.03 340.07 143.03C336.602 143.03 333.882 144.526 331.91 147.518C329.938 150.442 328.952 154.522 328.952 159.758ZM395.978 204.434C393.462 204.434 390.606 204.366 387.41 204.23C384.282 204.162 381.63 204.094 379.454 204.026C379.386 202.122 379.318 199.266 379.25 195.458C379.25 191.65 379.216 187.264 379.148 182.3C379.08 177.268 379.012 172.032 378.944 166.592C378.944 161.084 378.944 155.712 378.944 150.476C378.944 145.172 378.944 140.378 378.944 136.094C380.44 136.026 382.242 135.958 384.35 135.89C386.458 135.822 388.6 135.788 390.776 135.788C393.02 135.72 394.924 135.686 396.488 135.686C396.488 136.774 396.488 137.896 396.488 139.052C400.568 136.264 404.852 134.87 409.34 134.87C413.692 134.87 417.568 136.094 420.968 138.542C424.368 140.99 427.054 144.356 429.026 148.64C430.998 152.856 431.984 157.684 431.984 163.124C431.984 168.632 430.93 173.664 428.822 178.22C426.782 182.708 423.994 186.312 420.458 189.032C416.99 191.684 413.08 193.01 408.728 193.01C404.784 193.01 400.602 191.854 396.182 189.542C396.182 192.874 396.148 195.832 396.08 198.416C396.08 201 396.046 203.006 395.978 204.434ZM404.648 143.234C401.724 143.234 399.004 144.9 396.488 148.232C396.488 152.924 396.454 157.82 396.386 162.92C396.386 167.952 396.352 172.848 396.284 177.608C397.44 179.852 398.902 181.62 400.67 182.912C402.438 184.204 404.342 184.85 406.382 184.85C409.578 184.85 412.06 183.218 413.828 179.954C415.664 176.69 416.582 172.168 416.582 166.388C416.582 161.968 416.038 158.024 414.95 154.556C413.93 151.02 412.536 148.266 410.768 146.294C409 144.254 406.96 143.234 404.648 143.234ZM480.598 193.622C476.926 184.374 473.186 176.622 469.378 170.366C465.57 164.042 461.966 159.554 458.566 156.902C458.702 162.614 458.804 168.53 458.872 174.65C458.94 180.77 458.974 186.788 458.974 192.704C455.914 192.704 452.684 192.636 449.284 192.5C445.952 192.432 443.062 192.364 440.614 192.296C440.614 186.516 440.614 180.498 440.614 174.242C440.614 167.986 440.58 161.832 440.512 155.78C440.512 149.66 440.478 143.948 440.41 138.644C440.342 133.34 440.274 128.716 440.206 124.772C440.206 120.828 440.172 117.904 440.104 116C443.572 115.456 447.006 115.082 450.406 114.878C453.874 114.606 457.104 114.47 460.096 114.47C467.712 114.47 474.376 115.286 480.088 116.918C485.8 118.482 490.254 120.76 493.45 123.752C496.646 126.676 498.244 130.246 498.244 134.462C498.244 137.522 497.394 140.446 495.694 143.234C494.062 146.022 491.818 148.436 488.962 150.476C486.106 152.516 482.876 153.944 479.272 154.76C480.36 156.052 481.72 157.888 483.352 160.268C484.984 162.58 486.684 165.198 488.452 168.122C490.288 170.978 492.056 173.868 493.756 176.792C495.456 179.716 496.986 182.47 498.346 185.054C499.706 187.57 500.692 189.61 501.304 191.174C500.216 191.378 498.72 191.616 496.816 191.888C494.98 192.16 493.008 192.398 490.9 192.602C488.86 192.874 486.888 193.078 484.984 193.214C483.148 193.418 481.686 193.554 480.598 193.622ZM457.342 122.426C457.546 125.486 457.75 129.668 457.954 134.972C458.158 140.276 458.362 146.192 458.566 152.72C465.298 152.448 470.602 151.054 474.478 148.538C478.422 145.954 480.394 142.554 480.394 138.338C480.394 135.278 479.374 132.558 477.334 130.178C475.362 127.73 472.642 125.826 469.174 124.466C465.706 123.106 461.762 122.426 457.342 122.426ZM529.582 193.01C524.21 193.01 519.348 191.752 514.996 189.236C510.644 186.72 507.176 183.32 504.592 179.036C502.076 174.752 500.818 169.992 500.818 164.756C500.818 160.608 501.6 156.732 503.164 153.128C504.728 149.524 506.904 146.362 509.692 143.642C512.548 140.854 515.812 138.712 519.484 137.216C523.156 135.652 527.066 134.87 531.214 134.87C536.586 134.87 541.448 136.128 545.8 138.644C550.152 141.16 553.586 144.56 556.102 148.844C558.686 153.06 559.978 157.82 559.978 163.124C559.978 167.272 559.196 171.148 557.632 174.752C556.068 178.356 553.858 181.552 551.002 184.34C548.214 187.06 544.984 189.202 541.312 190.766C537.708 192.262 533.798 193.01 529.582 193.01ZM532.54 184.748C536.144 184.748 538.966 183.218 541.006 180.158C543.046 177.03 544.066 172.712 544.066 167.204C544.066 162.58 543.386 158.466 542.026 154.862C540.666 151.258 538.796 148.402 536.416 146.294C534.036 144.186 531.316 143.132 528.256 143.132C524.652 143.132 521.83 144.696 519.79 147.824C517.75 150.884 516.73 155.168 516.73 160.676C516.73 165.232 517.41 169.346 518.77 173.018C520.13 176.622 522 179.478 524.38 181.586C526.828 183.694 529.548 184.748 532.54 184.748ZM568.074 205.964L567.054 196.376C570.658 196.172 573.888 195.696 576.744 194.948C579.668 194.268 582.32 193.18 584.7 191.684C581.844 185.972 578.954 179.886 576.03 173.426C573.106 166.966 570.318 160.608 567.666 154.352C565.082 148.028 562.838 142.248 560.934 137.012C563.382 136.604 566.442 136.196 570.114 135.788C573.786 135.38 577.39 135.04 580.926 134.768C582.626 140.004 584.87 146.294 587.658 153.638C590.446 160.982 593.472 168.7 596.736 176.792C598.98 172.236 601.122 166.558 603.162 159.758C605.202 152.958 607.412 144.764 609.792 135.176L622.134 136.604C618.802 148.844 615.3 159.316 611.628 168.02C608.024 176.656 604.08 183.728 599.796 189.236C595.58 194.744 590.854 198.824 585.618 201.476C580.382 204.128 574.534 205.624 568.074 205.964ZM645.81 193.01C640.03 193.01 635.304 191.616 631.632 188.828C628.028 185.972 626.226 182.266 626.226 177.71C626.226 173.562 627.722 169.72 630.714 166.184C633.774 162.648 637.99 159.656 643.362 157.208C648.734 154.692 654.888 152.958 661.824 152.006C659.376 146.022 656.01 143.03 651.726 143.03C649.142 143.03 645.81 144.016 641.73 145.988C637.65 147.96 633.502 150.544 629.286 153.74L626.226 143.54C636.358 137.76 645.946 134.87 654.99 134.87C662.062 134.87 667.74 136.808 672.024 140.684C676.308 144.492 679.436 150.612 681.408 159.044C683.38 167.408 684.366 178.492 684.366 192.296C683.074 192.364 680.762 192.432 677.43 192.5C674.166 192.636 670.63 192.704 666.822 192.704C666.822 190.528 666.788 188.386 666.72 186.278C659.716 190.766 652.746 193.01 645.81 193.01ZM643.056 176.996C643.056 179.104 643.872 180.77 645.504 181.994C647.204 183.218 649.448 183.83 652.236 183.83C657.132 183.83 661.858 181.722 666.414 177.506C666.006 170.298 665.224 164.212 664.068 159.248C661.416 159.792 658.832 160.676 656.316 161.9C653.868 163.124 651.624 164.586 649.584 166.286C647.612 167.918 646.014 169.686 644.79 171.59C643.634 173.426 643.056 175.228 643.056 176.996ZM710.058 115.286C709.922 119.162 709.82 122.97 709.752 126.71C709.684 130.45 709.65 133.918 709.65 137.114C709.65 147.858 709.956 156.664 710.568 163.532C711.248 170.332 712.268 175.568 713.628 179.24C714.988 182.844 716.79 185.224 719.034 186.38L711.894 194.54C708.222 194.132 705.128 192.942 702.612 190.97C700.164 188.93 698.192 185.904 696.696 181.892C695.2 177.812 694.112 172.542 693.432 166.082C692.82 159.622 692.514 151.734 692.514 142.418C692.514 138.542 692.548 134.326 692.616 129.77C692.752 125.146 692.888 120.454 693.024 115.694C694.996 115.558 697.342 115.456 700.062 115.388C702.782 115.32 706.114 115.286 710.058 115.286Z" fill="#C39B54"/>
</svg>
