<svg width="187" height="263" viewBox="0 0 187 263" fill="none" xmlns="http://www.w3.org/2000/svg">
<path d="M186.5 180.264C162.868 224.506 141.65 241.422 94 261.764C39.597 240.451 18.8823 221.921 0.5 176.264V72.7637C15.1846 68.262 24.7602 66.6154 43.5 64.7637V71.2637C81.6563 66.4026 103.698 66.101 144 71.2637V64.7637C160.517 66.6823 169.865 68.5059 186.5 74.2637V180.264Z" fill="#C39B54" stroke="#C39B54"/>
<path d="M175.5 174.264C157.277 214.986 138.252 230.258 94 248.764C46.2826 231.313 27.5135 215.54 11.5 174.264V78.7637C19.06 76.0968 23.4003 75.5343 31.5 76.7637L34.5 84.2637C79.3737 75.6517 104.987 75.8255 152 84.2637L153.5 75.2637C161.205 75.9701 166.128 77.2488 175.5 80.7637V174.264Z" fill="#16181D" stroke="#C39B54"/>
<path d="M91.5061 184.764C87.8207 202.201 79.1628 207.339 60.5061 214.264C70.2799 214.83 75.8564 214.609 86.5061 209.764C106.125 195.824 111.11 185.476 103.506 159.764L93 148.764L80.5061 141.264L67 133.264C61.3125 129.834 59.2585 127.417 57.5061 122.264C57.5779 108.519 59.1438 101.804 77.5061 99.7642C91.4234 99.8622 98.2341 102.447 107.506 114.764V97.2642L90.0061 93.7642C76.3838 91.5042 69.4471 93.608 57.5061 99.7642C46.4103 107.736 43.2326 113.651 44.5061 126.764C48.3034 142.413 54.2105 148.305 70.0061 154.764C85.3725 161.075 91.6731 166.404 91.5061 184.764Z" fill="#C39B54" stroke="#C39B54"/>
<path d="M137 61.263C102.336 59.0846 83.0921 59.3944 49.5 62.263L41.5 29.263L58.5 37.263C56.3903 44.6468 57.4922 47.4518 67.5 47.763C77.9844 46.3535 80.3708 44.2667 73.5 36.263L91 14.263V10.263C77.9367 -0.878519 105.808 -4.88154 94.5 11.263V14.263L111.5 35.263C103.895 42.8266 104.786 45.7763 119 47.763C129.245 47.1149 130.766 44.3771 127.5 36.263L146 29.263L137 61.263Z" fill="#C39B54" stroke="#C39B54"/>
<path d="M93 213.764L107 197.764C110.313 208.395 115.331 211.796 129.5 213.764C117.28 217.346 109.646 218.049 93 213.764Z" fill="#C39B54"/>
<path d="M39.5 193.264V165.264C46.5362 186.315 55.1217 192.496 81 191.764C65.7319 196.762 57.276 200.147 39.5 193.264Z" fill="#C39B54"/>
<path d="M93 213.764L107 197.764C110.313 208.395 115.331 211.796 129.5 213.764C117.28 217.346 109.646 218.049 93 213.764Z" stroke="#C39B54"/>
<path d="M39.5 193.264V165.264C46.5362 186.315 55.1217 192.496 81 191.764C65.7319 196.762 57.276 200.147 39.5 193.264Z" stroke="#C39B54"/>
<path d="M106.004 148.764C103.642 138.463 103.786 132.555 106.004 122.264L90.5035 115.264C88.9881 123.433 88.7132 128.378 90.5035 138.764L106.004 148.764Z" fill="#C39B54" stroke="#C39B54"/>
<path d="M117 159.264C140.735 139.859 141.412 127.621 117 105.264C138.08 104.675 146.05 109.713 152 130.264C149.295 146.888 144.916 151.538 135.5 157.264L160.5 194.764C155.341 199.441 150.628 199.591 141 198.264L117 159.264Z" fill="#C39B54" stroke="#C39B54"/>
</svg>
